<?xml version="1.0" encoding="UTF-8" standalone="no"?>
<svg width="79px" height="26px" viewBox="0 0 79 26" version="1.1" xmlns="http://www.w3.org/2000/svg" xmlns:xlink="http://www.w3.org/1999/xlink" xmlns:sketch="http://www.bohemiancoding.com/sketch/ns">
    <!-- Generator: Sketch 3.3.2 (12043) - http://www.bohemiancoding.com/sketch -->
    <title>Basejs</title>
    <desc>Created with Sketch.</desc>
    <defs></defs>
    <g id="Welcome" stroke="none" stroke-width="1" fill="none" fill-rule="evenodd" sketch:type="MSPage">
        <g id="Base_Features" sketch:type="MSArtboardGroup" transform="translate(-101.000000, -35.000000)" fill="#000000">
            <path d="M105.214033,39.194963 L105.214033,43.3006115 L109.787094,43.3006115 C110.604017,43.3006115 111.26723,43.1469144 111.776754,42.8395156 C112.286278,42.5321168 112.541036,41.9868079 112.541036,41.2035726 C112.541036,40.3361184 112.204166,39.7634388 111.530415,39.4855166 C110.949305,39.2918132 110.20819,39.194963 109.307049,39.194963 L105.214033,39.194963 Z M105.214033,46.3830061 L105.214033,51.3476827 L109.787094,51.3476827 C110.604017,51.3476827 111.239859,51.2381998 111.694641,51.0192308 C112.519986,50.6149803 112.932652,49.8401785 112.932652,48.6948021 C112.932652,47.7262853 112.532619,47.0609663 111.732539,46.6988252 C111.28618,46.4967 110.658758,46.391428 109.850257,46.3830061 L105.214033,46.3830061 Z M115.396041,37.9443193 C115.968729,38.7359765 116.255069,39.6834244 116.255069,40.7866913 C116.255069,41.9236459 115.968729,42.8374067 115.396041,43.5280013 C115.07601,43.915408 114.604391,44.2691219 113.981172,44.5891535 C114.932845,44.9344508 115.6508,45.4818652 116.135058,46.2314129 C116.619316,46.9809607 116.861442,47.8905107 116.861442,48.9600901 C116.861442,50.0633571 116.583524,51.0529138 116.027679,51.9287898 C115.67396,52.5098999 115.231818,52.9983619 114.701239,53.3941905 C114.103285,53.8489723 113.397963,54.1605774 112.585251,54.3290151 C111.772539,54.4974528 110.89036,54.5816704 109.938687,54.5816704 L101.5,54.5816704 L101.5,35.9609752 L110.54506,35.9609752 C112.82739,35.9946628 114.444368,36.6557708 115.396041,37.9443193 L115.396041,37.9443193 Z M127.422433,47.8863051 C127.195042,48.0294772 126.965549,48.1452764 126.733948,48.2337061 C126.502346,48.3221359 126.184424,48.4042481 125.780174,48.4800451 L124.971677,48.6316382 C124.213707,48.7663884 123.670504,48.9306127 123.34205,49.1243161 C122.786206,49.4527696 122.508288,49.962286 122.508288,50.6528806 C122.508288,51.2676782 122.678828,51.711926 123.019915,51.9856373 C123.361001,52.2593485 123.775773,52.3962021 124.264242,52.3962021 C125.039055,52.3962021 125.7528,52.1688146 126.405496,51.7140328 C127.058192,51.259251 127.397168,50.4297078 127.422433,49.2253782 L127.422433,47.8863051 Z M125.236965,46.2061474 C125.902294,46.1219286 126.378123,46.0166566 126.664467,45.8903283 C127.178202,45.6713593 127.435066,45.330278 127.435066,44.8670743 C127.435066,44.302808 127.23926,43.9133017 126.847642,43.6985436 C126.456025,43.4837855 125.88124,43.3764081 125.12327,43.3764081 C124.27266,43.3764081 123.670504,43.5869521 123.316785,44.0080463 C123.064128,44.3196561 122.895693,44.740744 122.811474,45.2713228 L119.337464,45.2713228 C119.413261,44.0669932 119.750131,43.0774366 120.348085,42.3026231 C121.299758,41.0898716 122.933579,40.483505 125.249598,40.483505 C126.757115,40.483505 128.096175,40.7824774 129.266817,41.3804313 C130.437459,41.9783851 131.022771,43.1069008 131.022771,44.7660122 L131.022771,51.0823946 C131.022771,51.5203326 131.031193,52.0509034 131.048037,52.6741229 C131.073302,53.1457485 131.144887,53.4657754 131.262794,53.6342131 C131.3807,53.8026508 131.557557,53.9416098 131.79337,54.0510943 L131.79337,54.5816704 L127.877213,54.5816704 C127.767728,54.3037482 127.691932,54.0426737 127.649823,53.798439 C127.607714,53.5542043 127.574027,53.2762863 127.548761,52.9646765 C127.05187,53.5036772 126.47919,53.9626631 125.830705,54.3416479 C125.055891,54.7880078 124.180028,55.0111844 123.20309,55.0111844 C121.956651,55.0111844 120.927091,54.6553651 120.114379,53.9437158 C119.301667,53.2320665 118.895317,52.2235609 118.895317,50.9181687 C118.895317,49.2253697 119.548003,48.0000038 120.853396,47.2420341 C121.569256,46.8293617 122.621976,46.5346002 124.011587,46.3577406 L125.236965,46.2061474 Z M137.023334,50.1854683 C137.099131,50.8255316 137.263356,51.2803066 137.516012,51.5498069 C137.962372,52.0298543 138.787705,52.2698745 139.992034,52.2698745 C140.699472,52.2698745 141.261625,52.1646025 141.678508,51.9540554 C142.095392,51.7435082 142.30383,51.4276923 142.30383,51.006598 C142.30383,50.6023475 142.135395,50.2949533 141.798519,50.0844062 C141.461644,49.873859 140.211013,49.5117234 138.046588,48.9979884 C136.48854,48.6105817 135.3895,48.1263306 134.749437,47.5452205 C134.109373,46.9725323 133.789347,46.1471999 133.789347,45.0691986 C133.789347,43.7974939 134.288336,42.7047707 135.286329,41.7909961 C136.284323,40.8772216 137.688651,40.4203412 139.499356,40.4203412 C141.217421,40.4203412 142.617538,40.7635278 143.699751,41.4499115 C144.781963,42.1362951 145.403068,43.3216577 145.563083,45.0060348 L141.962745,45.0060348 C141.912214,44.5428311 141.781677,44.1764846 141.57113,43.9069842 C141.175301,43.4185149 140.50156,43.1742839 139.549887,43.1742839 C138.766652,43.1742839 138.20871,43.2963994 137.876046,43.5406341 C137.543382,43.7848687 137.377052,44.0712085 137.377052,44.3996621 C137.377052,44.8123344 137.553909,45.1113069 137.907628,45.2965883 C138.261347,45.4902917 139.511978,45.8229512 141.659559,46.2945768 C143.09128,46.6314522 144.165054,47.1409686 144.880914,47.8231413 C145.588352,48.5137359 145.942066,49.3769662 145.942066,50.4128581 C145.942066,51.7772035 145.434655,52.8909811 144.419818,53.7542243 C143.404981,54.6174676 141.836428,55.0490827 139.714113,55.0490827 C137.549689,55.0490827 135.95166,54.5922023 134.919979,53.6784277 C133.888298,52.7646532 133.372465,51.600345 133.372465,50.1854683 L137.023334,50.1854683 Z M152.100539,44.1975378 C151.641546,44.7196947 151.353101,45.4271225 151.235195,46.3198423 L156.831509,46.3198423 C156.772556,45.3681693 156.484111,44.6460034 155.966165,44.1533231 C155.448219,43.6606429 154.80606,43.4143064 154.039668,43.4143064 C153.205902,43.4143064 152.559532,43.6753809 152.100539,44.1975378 L152.100539,44.1975378 Z M157.134696,41.0898777 C158.052681,41.5193938 158.81064,42.1973454 159.408593,43.1237528 C159.947594,43.9406757 160.297097,44.8881236 160.457113,45.9661249 C160.549754,46.5977663 160.587652,47.5073162 160.570808,48.6948021 L151.146765,48.6948021 C151.197297,50.0759912 151.631017,51.0444935 152.44794,51.6003379 C152.944831,51.9456352 153.542776,52.1182813 154.241793,52.1182813 C154.982919,52.1182813 155.585074,51.9077373 156.048278,51.4866431 C156.300935,51.2592522 156.524111,50.9434362 156.717815,50.5391857 L160.393949,50.5391857 C160.301308,51.3561086 159.87601,52.1856518 159.11804,53.0278404 C157.938976,54.3669201 156.288311,55.03645 154.165996,55.03645 C152.414244,55.03645 150.868851,54.4721921 149.529771,53.3436595 C148.190692,52.2151269 147.521162,50.3791834 147.521162,47.8357741 C147.521162,45.4523805 148.125423,43.6248588 149.333964,42.3531542 C150.542504,41.0814495 152.111057,40.4456067 154.039668,40.4456067 C155.185045,40.4456067 156.21671,40.6603615 157.134696,41.0898777 L157.134696,41.0898777 Z M165.257564,38.6517541 L162.983666,38.6517541 L162.983666,36.024139 L165.257564,36.024139 L165.257564,38.6517541 Z M160.836096,58.0051497 C161.855144,57.9714621 162.467827,57.8809282 162.674163,57.7335452 C162.880499,57.5861622 162.983666,57.1250709 162.983666,56.3502575 L162.983666,41.1151432 L165.257564,41.1151432 L165.257564,56.59028 C165.257564,57.5756406 165.09755,58.3125445 164.777519,58.8010138 C164.24694,59.6263586 163.24054,60.0390248 161.758288,60.0390248 C161.648803,60.0390248 161.533004,60.0348139 161.410887,60.026392 C161.288769,60.0179701 161.097174,60.0011266 160.836096,59.975861 L160.836096,58.0051497 Z M170.08328,50.3370615 C170.150655,51.0950311 170.340144,51.6761325 170.651754,52.080383 C171.224442,52.813087 172.21821,53.1794335 173.633087,53.1794335 C174.475275,53.1794335 175.21639,52.9962603 175.856453,52.6299083 C176.496516,52.2635563 176.816543,51.697193 176.816543,50.9308014 C176.816543,50.3496913 176.55968,49.907549 176.045945,49.6043611 C175.717491,49.4190796 175.069016,49.2043248 174.100499,48.9600901 L172.294014,48.5053106 C171.140215,48.2189665 170.289618,47.8989397 169.742195,47.5452205 C168.765256,46.9304228 168.276794,46.0798252 168.276794,44.993402 C168.276794,43.7132754 168.737886,42.6773991 169.660082,41.8857419 C170.582279,41.0940847 171.822383,40.698262 173.380431,40.698262 C175.418528,40.698262 176.888124,41.2962069 177.789266,42.4921146 C178.353532,43.2500843 178.62724,44.0669949 178.610396,44.9428709 L176.462826,44.9428709 C176.420716,44.4291359 176.239649,43.9617283 175.919617,43.5406341 C175.39746,42.9426802 174.492121,42.6437078 173.203573,42.6437078 C172.34454,42.6437078 171.693959,42.8079321 171.25181,43.1363856 C170.809661,43.4648391 170.58859,43.8985597 170.58859,44.4375603 C170.58859,45.0270923 170.879141,45.4987108 171.460251,45.85243 C171.797126,46.0629771 172.29401,46.2482558 172.950917,46.4082716 L174.454216,46.7746218 C176.088062,47.1704504 177.182891,47.5536405 177.738735,47.9242034 C178.623033,48.5053135 179.065175,49.4190743 179.065175,50.6655134 C179.065175,51.8698429 178.608295,52.9099302 177.69452,53.7858062 C176.780746,54.6616823 175.38905,55.0996138 173.519392,55.0996138 C171.506561,55.0996138 170.081178,54.6427334 169.243201,53.7289588 C168.405223,52.8151843 167.956765,51.6845631 167.897811,50.3370615 L170.08328,50.3370615 Z" id="Basejs" sketch:type="MSShapeGroup"></path>
        </g>
    </g>
</svg>
